<svg xmlns="http://www.w3.org/2000/svg" viewBox="0 0 284.59 313.83"><defs><style>.cls-1{fill:#7c6053;}.cls-2{fill:#fca397;}.cls-3{fill:#ffbf69;}</style></defs><title>person3</title><g id="Layer_2" data-name="Layer 2"><g id="Layer_1-2" data-name="Layer 1"><path class="cls-1" d="M235.36,281.7a178.72,178.72,0,0,1-102.62,32.13c-1.39,0-2.82,0-4.25,0A179.92,179.92,0,0,1,0,255.41C12.66,228,42.05,176.18,88,163.75c.54-.15,1.08-.27,1.58-.42,53.17-13.44,125.29-.89,139.65,9.88C235.13,178.08,236.17,226.38,235.36,281.7Z"/><path d="M100.42,67.39s-29.92-37-17.37-51.68,32,0,32,0S116.08-1.66,135.44.13s31,22.42,31,22.42,17-17,28.69,0,3.59,44.84,3.59,44.84,13.45-2,9.86,13.8-24.74,32.07-24.74,32.07Z"/><path class="cls-2" d="M165.9,125.64l.56,41.72s-7.36,12.1-31.75,14.41c-18.16,1.73-24.6-2.3-24.6-2.3l2.25-21.17,2.22-20.64,43.94-10.29Z"/><path d="M158.52,127.37a13.63,13.63,0,0,1-1.16,4c-9.05,21-34.51,25.8-45,26.88l2.22-20.64Z"/><path class="cls-2" d="M104,42.68S82.8,95.29,91.82,124.24s35.49,23.59,51.23,17.48,22.85-16.07,22.85-16.07,15,4.61,24.55-9.5,3-29.8-5.63-33.2-18.51,3-18.51,3l7.47-15.32S138.28-5.11,104,42.68Z"/><path d="M168.13,108.76a1.93,1.93,0,0,1-1.14-3.48l15.72-11.63a1.93,1.93,0,1,1,2.29,3.1l-15.72,11.63A2,2,0,0,1,168.13,108.76Z"/><path d="M185.27,108.29a1.85,1.85,0,0,1-.46-.05l-12.42-3a1.93,1.93,0,0,1,.91-3.75l12.42,3a1.93,1.93,0,0,1-.45,3.8Z"/><path d="M137.84,67.15A1.92,1.92,0,0,1,136,65.87c-2.85-8-10-6.84-10.27-6.8a1.93,1.93,0,0,1-.68-3.8c3.64-.66,11.41.41,14.58,9.3A1.94,1.94,0,0,1,138.49,67,2.06,2.06,0,0,1,137.84,67.15Z"/><path d="M98.72,63.07a1.93,1.93,0,0,1-1.25-3.4c1.85-1.57,6.77-5.74,9-3.23a1.94,1.94,0,0,1-.17,2.73,1.9,1.9,0,0,1-1.83.4c-.43.13-1.72.68-4.5,3A1.93,1.93,0,0,1,98.72,63.07Z"/><path d="M106.28,102.67a1.91,1.91,0,0,1-1.53-.76C98,93,111,79,111.55,78.39A1.93,1.93,0,1,1,114.36,81c-3.17,3.39-10.53,13.31-6.54,18.54a1.93,1.93,0,0,1-1.54,3.1Z"/><path d="M102.88,84h-.28A1.94,1.94,0,0,1,101,81.84L102.37,72a1.93,1.93,0,1,1,3.82.55l-1.41,9.82A1.92,1.92,0,0,1,102.88,84Z"/><path d="M131.63,84.08a2,2,0,0,1-1.92-2l.63-9.9a1.87,1.87,0,0,1,2-1.8,1.92,1.92,0,0,1,1.81,2l-.63,9.91A1.93,1.93,0,0,1,131.63,84.08Z"/><path d="M99.76,54.53a17.61,17.61,0,0,1,14.82-8.66,22.52,22.52,0,0,1,16.59,7s-4.33,17.59,10,26.71S166.31,86,166.31,86l10.22-3.79,7.33-15.11-30.13-31.6L115,15.71l-19.34,18Z"/><path d="M117.51,119.17c-.46,0-.76,0-.82,0a1.93,1.93,0,0,1-1.76-2.08,1.9,1.9,0,0,1,2.07-1.77c.34,0,8.39.54,11.72-6.8a1.93,1.93,0,1,1,3.52,1.59C128.44,118.46,120.17,119.17,117.51,119.17Z"/><path class="cls-1" d="M284.59,230.51a181.12,181.12,0,0,1-83,69.69l27.64-127C231.12,174.52,260.61,195.33,284.59,230.51Z"/><path class="cls-3" d="M128.56,183.93a95.49,95.49,0,0,1-24.07-3.07,1.93,1.93,0,0,1,1.06-3.71,94.16,94.16,0,0,0,29,2.7c17.7-1.32,34.59-13.9,34.76-14a1.93,1.93,0,1,1,2.33,3.08c-.73.55-17.95,13.4-36.8,14.8C132.71,183.86,130.6,183.93,128.56,183.93Z"/></g></g></svg>