<svg xmlns="http://www.w3.org/2000/svg" viewBox="0 0 311 310.64"><defs><style>.cls-1{fill:#fcb35b;}.cls-2{fill:#f27e64;}.cls-3{fill:#fff;}</style></defs><title>person1</title><g id="Layer_2" data-name="Layer 2"><g id="Layer_1-2" data-name="Layer 1"><path d="M106.83,92.27s-41.85,31.56-45,69.9c-4.71,58,61.29,32.64,68.55-4.35S106.83,92.27,106.83,92.27Z"/><path class="cls-1" d="M270.65,268.1A180,180,0,0,1,20.27,250.61c-2-2.17-3.86-4.4-5.71-6.68l113.93-82.55c.08,0,4.4-3.2,4.4-3.2l44.75,3.62,18.57,1.51Z"/><path d="M103.08,88.31S88,71.62,92.33,45.76c3-17.54,10.75-23.21,10.75-23.21S91.19-1.39,126.57.06s56.21,18.83,56.21,18.83,16.17-8,23.42,10.91,0,46.68,0,46.68Z"/><path class="cls-1" d="M132.89,161.07,20.27,250.61c-2-2.17-3.86-4.4-5.71-6.68A181.26,181.26,0,0,1,0,223.16c3.47-3.13,7.1-6.26,10.85-9.39,51.62-43.05,102.66-51,117.64-52.39C131.39,161.11,132.89,161.07,132.89,161.07Z"/><path class="cls-2" d="M180.75,117.47l-.87,46.16s-8,13-33.36,14.41c-18.86,1-24.63-9.49-24.63-9.49l5.32-40.24L173.06,119Z"/><path class="cls-1" d="M311,219.56a180.89,180.89,0,0,1-99,81.7l29.12-35.48-63.48-104-.46-.73a164.08,164.08,0,0,1,19,2.24C222.93,167.75,272.58,180.92,311,219.56Z"/><path d="M180.75,114.83a14.17,14.17,0,0,1-1.36,4.14c-10.2,21.33-44.44,29.46-55.33,30.16l3.12-21.27Z"/><path class="cls-2" d="M120,29.17s-24,53.58-15.85,83.9,35.77,25.81,52.31,20.13,24.28-15.72,24.28-15.72,15.34,5.37,25.77-8.85,4.26-30.72-4.5-34.57-19.26,2.4-19.26,2.4l8.34-15.56S157.4-18.9,120,29.17Z"/><path d="M182.77,76.46s-23.14,4.67-39.22-21.08S129,19.05,129,19.05l-16,26.59s-3.58-18.44,3.79-30.19,15-9.31,15-9.31l51,12.75,13.43,40.89Z"/><path d="M121.85,97.78A1.92,1.92,0,0,1,120,96.42c-3.56-11.62,4.64-23.38,5-23.88a1.93,1.93,0,1,1,3.15,2.23c-.08.11-7.45,10.73-4.45,20.52a1.93,1.93,0,0,1-1.28,2.41A1.87,1.87,0,0,1,121.85,97.78Z"/><path d="M185,101.92a1.93,1.93,0,0,1-1.4-3.26l14.66-15.45a1.93,1.93,0,1,1,2.8,2.66l-14.67,15.45A1.9,1.9,0,0,1,185,101.92Z"/><path d="M200.47,97.81a1.42,1.42,0,0,1-.29,0l-10.11-1.56a1.93,1.93,0,0,1-1.61-2.2,2,2,0,0,1,2.2-1.62L200.76,94a1.93,1.93,0,0,1-.29,3.83Z"/><path d="M141.23,113.18c-5.09,0-10.87-3.44-11.7-4a1.92,1.92,0,0,1,.12-3.35l16.29-8.51a1.92,1.92,0,0,1,2.74,1.16c.11.37,2.66,9.09-2.76,13.24A7.53,7.53,0,0,1,141.23,113.18Zm-6.51-5.6c3.12,1.38,7,2.5,8.86,1.11,2-1.53,2.08-4.57,1.84-6.7Z"/><path d="M111.49,53.71a1.93,1.93,0,0,1-.33-3.83l9.55-1.66A2,2,0,0,1,123,49.79,1.93,1.93,0,0,1,121.38,52l-9.56,1.66A1.84,1.84,0,0,1,111.49,53.71Z"/><path d="M151.21,60a2,2,0,0,1-.87-.21l-15.67-7.94a1.93,1.93,0,1,1,1.74-3.44l15.67,7.93a1.93,1.93,0,0,1-.87,3.66Z"/><path d="M212,92.27s33.37,28.92,28.65,76.07-51.46,41.09-61.28,23.89c-14.87-26.07,1.39-74.75,1.39-74.75S209.42,122.28,212,92.27Z"/><path d="M111.49,75.8a1.77,1.77,0,0,1-.56-.09,1.91,1.91,0,0,1-1.28-2.41l2.68-8.72L110,61.73a1.93,1.93,0,1,1,3-2.44l3,3.64a1.93,1.93,0,0,1,.35,1.79l-3,9.72A1.93,1.93,0,0,1,111.49,75.8Z"/><path d="M140.74,78.41a2.24,2.24,0,0,1-.57-.08,1.94,1.94,0,0,1-1.28-2.42l2.67-8.7-3.43-4a1.93,1.93,0,1,1,2.93-2.51l4.12,4.81a1.91,1.91,0,0,1,.38,1.82l-3,9.72A1.92,1.92,0,0,1,140.74,78.41Z"/><path class="cls-3" d="M146.65,179.9c-16.43,0-26.17-9-26.31-9.09A1.93,1.93,0,0,1,123,168c.77.73,19.21,17.5,49.15.7a1.93,1.93,0,1,1,1.9,3.36C163.63,177.91,154.4,179.9,146.65,179.9Z"/></g></g></svg>