<svg xmlns="http://www.w3.org/2000/svg" viewBox="0 0 277.95 333"><defs><style>.cls-1{fill:#507849;}.cls-2{fill:#e56445;}.cls-3{fill:#fca397;}.cls-4{fill:#fff;}</style></defs><title>person2</title><g id="Layer_2" data-name="Layer 2"><g id="Layer_1-2" data-name="Layer 1"><path class="cls-1" d="M278,275.89c-.39.47-.77.89-1.2,1.32-.54.58-1.12,1.16-1.66,1.7A179.52,179.52,0,0,1,146.45,333a189,189,0,0,1-23.09-1.43.36.36,0,0,0-.2,0,179.57,179.57,0,0,1-52.54-15.25c1.54-65.21.88-122.28.88-123.36.62-1.35,30.81-9.11,71-10.42C205.75,180.49,259.18,216.17,278,275.89Z"/><path class="cls-1" d="M123.36,331.57a.36.36,0,0,0-.2,0,179.57,179.57,0,0,1-52.54-15.25c-1.35-.62-2.71-1.27-4.06-1.93A180,180,0,0,1,0,257.59c34.67-47.52,63-61.39,71.5-64.67a25.19,25.19,0,0,1,2.63-.92Z"/><path class="cls-2" d="M147.14,76.69s41.56,2,43.92-37.87c2.5-42.43-36.76-46.5-53.43-29.34S124,44.08,124,44.08s-11.62-10.47-24.29,2.4c-9.3,9.44-4.5,24.87-4.5,24.87s-21.44-.82-19.44,17.89a41.79,41.79,0,0,0,15.38,28.22Z"/><path class="cls-3" d="M109.15,150.08l4.32,44.16s9.2,11.91,35.24,11.49c19.4-.32,25.73-5.34,25.73-5.34l-4.87-22.1-4.77-21.55L117.14,151Z"/><path d="M117.14,151a14.61,14.61,0,0,0,1.7,4.14c12,21.09,39.52,23.2,50.73,23.11l-4.77-21.55Z"/><path class="cls-3" d="M164.8,55.12s28.59,53.1,22.46,84.76-34.72,29.1-52.08,24.5-26-14.29-26-14.29-15.31,6.64-27.06-7.15-6.63-31.14,2-35.74,19.92,1,19.92,1L94.34,92.9S122.93,8.66,164.8,55.12Z"/><path d="M104.56,132.39a1.88,1.88,0,0,1-1-.26L86.08,122A1.93,1.93,0,1,1,88,118.63l17.51,10.16a1.93,1.93,0,0,1-1,3.6Z"/><path d="M90.27,133.92a1.93,1.93,0,0,1-.9-3.64l8.92-4.66a1.93,1.93,0,0,1,1.78,3.43l-8.91,4.65A1.89,1.89,0,0,1,90.27,133.92Z"/><path d="M172.54,75.94a2,2,0,0,1-1.08-.33,8.62,8.62,0,0,0-9.65,0,1.93,1.93,0,0,1-2.27-3.12,12.48,12.48,0,0,1,14.08,0,1.93,1.93,0,0,1-1.08,3.53Z"/><path d="M166.61,126.21l-.37,0a1.93,1.93,0,0,1-1.52-2.27,33.18,33.18,0,0,0-6.47-27.3A1.94,1.94,0,0,1,161.11,94a36.71,36.71,0,0,1,7.4,30.65A1.94,1.94,0,0,1,166.61,126.21Z"/><path d="M172.57,102a1.93,1.93,0,0,1-1.93-1.84l-.45-10.54a1.93,1.93,0,0,1,3.86-.17L174.5,100a1.93,1.93,0,0,1-1.85,2Z"/><path d="M143.58,104.77a1.92,1.92,0,0,1-1.92-1.84l-.46-10.54a2,2,0,0,1,1.85-2,1.92,1.92,0,0,1,2,1.85l.45,10.54a1.92,1.92,0,0,1-1.84,2Z"/><path class="cls-2" d="M170.66,67.14A18.73,18.73,0,0,0,154,59.74a23.91,23.91,0,0,0-16.7,9.39s6.65,18.08-7.37,29.39-25.87,9.7-25.87,9.7l-11.25-2.81L83.27,90.32l28.12-36.95L150,27.91l22.57,16.8Z"/><path d="M157.44,137.53A16.19,16.19,0,0,1,143,129.61a1.93,1.93,0,1,1,3.32-2c4.42,7.44,13,5.93,13.32,5.86a1.93,1.93,0,0,1,.73,3.79A15.79,15.79,0,0,1,157.44,137.53Z"/><path class="cls-4" d="M184.19,117.91c-10.37,0-18.81-8.7-18.81-19.39s8.44-19.38,18.81-19.38S203,87.84,203,98.52,194.57,117.91,184.19,117.91Zm0-34.91c-8.24,0-14.95,7-14.95,15.52s6.71,15.53,14.95,15.53,15-7,15-15.53S192.44,83,184.19,83Z"/><path class="cls-4" d="M139.5,122.23a19.39,19.39,0,1,1,19.38-19.39A19.41,19.41,0,0,1,139.5,122.23Zm0-34.91A15.53,15.53,0,1,0,155,102.84,15.54,15.54,0,0,0,139.5,87.32Z"/><path class="cls-4" d="M155.08,102.75a1.93,1.93,0,0,1-.16-3.85l13.65-1.12a1.93,1.93,0,1,1,.31,3.85l-13.65,1.12Z"/><path class="cls-4" d="M92.79,107.34a1.92,1.92,0,0,1-1.4-3.25c10.38-11,30.67-.84,31.53-.4a1.93,1.93,0,1,1-1.76,3.44c-.18-.09-18.56-9.32-27-.4A1.9,1.9,0,0,1,92.79,107.34Z"/><path class="cls-4" d="M149.24,206.11a68,68,0,0,1-41-13.5,1.93,1.93,0,1,1,2.28-3.11c34.09,25,70.88,5.53,71.25,5.33a1.93,1.93,0,0,1,1.85,3.39A79.38,79.38,0,0,1,149.24,206.11Z"/><path d="M129.91,82.2a1.92,1.92,0,0,1-1.63-3c5.28-8.43,13.51-7.78,17.12-6.27a1.94,1.94,0,0,1,1,2.53,1.91,1.91,0,0,1-2.52,1c-.36-.14-7.55-2.92-12.36,4.76A2,2,0,0,1,129.91,82.2Z"/></g></g></svg>